<?xml version="1.0" encoding="UTF-8" standalone="no"?>
<svg width="198px" height="180px" viewBox="0 0 198 180" version="1.1" xmlns="http://www.w3.org/2000/svg" xmlns:xlink="http://www.w3.org/1999/xlink" xmlns:sketch="http://www.bohemiancoding.com/sketch/ns">
    <!-- Generator: Sketch 3.3.3 (12072) - http://www.bohemiancoding.com/sketch -->
    <title>caffeine-mug</title>
    <desc>Created with Sketch.</desc>
    <defs></defs>
    <g id="Page-1" stroke="none" stroke-width="1" fill="none" fill-rule="evenodd" sketch:type="MSPage">
        <g id="caffeine-mug" sketch:type="MSArtboardGroup">
            <g id="Imported-Layers" sketch:type="MSLayerGroup">
                <path d="M189,135 L189,126 L171,126 L162,126 L126,126 L126,162 L63,162 L63,135 L27,135 L27,117 L18,117 L18,126 L9,126 L9,135 L0,135 L0,153 L9,153 L9,162 L18,162 L18,171 L27,171 L54,171 L54,180 L126,180 L126,171 L162,171 L162,162 L171,162 L171,153 L189,153 L189,144 L198,144 L198,135 L189,135 L189,135 Z" id="Fill-1" fill="#BCBEC0" sketch:type="MSShapeGroup"></path>
                <path d="M171,90 L162,90 L162,99 L144,99 L144,72 L162,72 L162,81 L171,81 L171,90 L171,90 Z M171,63 L171,54 L144,54 L144,27 L135,27 L135,18 L117,18 L117,9 L63,9 L63,18 L45,18 L45,27 L36,27 L36,144 L45,144 L45,153 L63,153 L63,162 L117,162 L117,153 L135,153 L135,144 L144,144 L144,117 L171,117 L171,108 L180,108 L180,63 L171,63 L171,63 Z" id="Fill-2" fill="#FFFFFF" sketch:type="MSShapeGroup"></path>
                <path d="M27,144 L36,144 L36,27 L27,27 L27,144 L27,144 Z M36,153 L45,153 L45,144 L36,144 L36,153 L36,153 Z M45,162 L63,162 L63,153 L45,153 L45,162 L45,162 Z M63,171 L117,171 L117,162 L63,162 L63,171 L63,171 Z M117,162 L135,162 L135,153 L117,153 L117,162 L117,162 Z M135,153 L144,153 L144,144 L135,144 L135,153 L135,153 Z M162,90 L171,90 L171,81 L162,81 L162,90 L162,90 Z M153,81 L162,81 L162,72 L144,72 L144,99 L162,99 L162,90 L153,90 L153,81 L153,81 Z M144,144 L153,144 L153,126 L171,126 L171,117 L144,117 L144,144 L144,144 Z M171,117 L180,117 L180,108 L171,108 L171,117 L171,117 Z M180,108 L189,108 L189,63 L180,63 L180,108 L180,108 Z M180,54 L171,54 L171,63 L180,63 L180,54 L180,54 Z M171,54 L171,45 L153,45 L153,27 L144,27 L144,54 L171,54 L171,54 Z M144,18 L135,18 L135,27 L144,27 L144,18 L144,18 Z M135,9 L117,9 L117,18 L135,18 L135,9 L135,9 Z M117,0 L63,0 L63,9 L117,9 L117,0 L117,0 Z M63,9 L45,9 L45,18 L63,18 L63,9 L63,9 Z M45,18 L36,18 L36,27 L45,27 L45,18 L45,18 Z" id="Fill-3" fill="#000000" sketch:type="MSShapeGroup"></path>
                <path d="M135,45 L117,45 L117,36 L63,36 L63,45 L45,45 L45,63 L63,63 L63,72 L117,72 L117,63 L135,63 L135,45 L135,45 Z" id="Fill-4" fill="#603913" sketch:type="MSShapeGroup"></path>
                <path d="M117,27 L117,18 L63,18 L63,27 L45,27 L45,45 L63,45 L63,36 L117,36 L117,45 L135,45 L135,27 L117,27 L117,27 Z" id="Fill-5" fill="#CCCCCC" sketch:type="MSShapeGroup"></path>
                <path d="M99,54 L90,54 L90,63 L99,63 L99,54 L99,54 Z M108,45 L117,45 L117,36 L108,36 L108,45 L108,45 Z M90,45 L99,45 L99,36 L90,36 L90,45 L90,45 Z M81,54 L90,54 L90,45 L81,45 L81,54 L81,54 Z M63,72 L72,72 L72,63 L63,63 L63,72 L63,72 Z M72,63 L81,63 L81,54 L72,54 L72,63 L72,63 Z M81,36 L72,36 L72,45 L81,45 L81,36 L81,36 Z M54,63 L63,63 L63,54 L54,54 L54,63 L54,63 Z M72,45 L63,45 L63,54 L72,54 L72,45 L72,45 Z M45,54 L54,54 L54,45 L45,45 L45,54 L45,54 Z" id="Fill-6" fill="#8C6239" sketch:type="MSShapeGroup"></path>
                <path d="M171,108 L180,108 L180,99 L171,99 L171,108 L171,108 Z M171,72 L162,72 L162,81 L171,81 L171,72 L171,72 Z M36,144 L45,144 L45,135 L36,135 L36,144 L36,144 Z M144,72 L162,72 L162,63 L135,63 L135,72 L117,72 L117,81 L108,81 L108,135 L99,135 L99,144 L45,144 L45,153 L63,153 L63,162 L117,162 L117,153 L135,153 L135,144 L144,144 L144,117 L171,117 L171,108 L144,108 L144,72 L144,72 Z" id="Fill-7" fill="#EEEEEE" sketch:type="MSShapeGroup"></path>
            </g>
        </g>
    </g>
</svg>